<?xml version="1.0" standalone="no"?>
<!DOCTYPE svg PUBLIC "-//W3C//DTD SVG 20010904//EN"
 "http://www.w3.org/TR/2001/REC-SVG-20010904/DTD/svg10.dtd">
<svg version="1.0" xmlns="http://www.w3.org/2000/svg"
 width="500.000000pt" height="500.000000pt" viewBox="0 0 500.000000 500.000000"
 preserveAspectRatio="xMidYMid meet">

<g transform="translate(0.000000,500.000000) scale(0.100000,-0.100000)"
fill="#000000" stroke="none">
<path d="M2390 3713 c-55 -5 -202 -31 -208 -38 -8 -8 13 -6 70 6 29 7 107 17
173 24 107 11 80 17 -35 8z"/>
<path d="M2630 3700 c56 -7 110 -18 230 -45 l25 -6 -25 12 c-45 19 -194 49
-245 47 -49 -1 -49 -1 15 -8z"/>
<path d="M2265 3626 c-245 -58 -407 -147 -575 -316 -215 -214 -325 -462 -337
-761 -11 -255 48 -465 192 -684 112 -171 260 -299 459 -396 188 -91 368 -123
599 -107 126 9 230 35 355 90 136 59 231 126 348 242 116 117 183 212 242 348
54 123 79 221 90 356 18 211 -15 405 -101 586 -151 321 -419 542 -766 633 -78
21 -125 26 -251 29 -136 3 -167 1 -255 -20z m408 -1 c375 -65 682 -294 847
-629 72 -148 101 -266 107 -443 9 -228 -23 -377 -118 -564 -167 -327 -484
-558 -837 -609 -129 -19 -345 -8 -465 23 -252 67 -507 249 -651 466 -167 251
-232 558 -176 833 59 288 180 493 400 679 153 129 359 217 590 252 63 10 225
6 303 -8z"/>
<path d="M2420 3465 l0 -75 45 0 c34 0 45 4 45 15 0 11 -7 14 -25 11 -19 -4
-25 0 -25 14 0 11 8 20 22 22 32 5 35 28 4 28 -19 0 -26 5 -26 20 0 15 7 20
25 20 14 0 25 5 25 10 0 6 -20 10 -45 10 l-45 0 0 -75z"/>
<path d="M2565 3482 c-4 -31 -9 -65 -11 -74 -4 -13 4 -18 41 -23 53 -8 91 10
101 49 13 53 -19 89 -88 99 l-37 6 -6 -57z m79 15 c26 -19 18 -68 -14 -84 -34
-17 -43 -4 -35 51 8 48 19 55 49 33z"/>
<path d="M2308 3522 c-14 -3 -18 -14 -18 -53 0 -27 -4 -49 -10 -49 -5 0 -19
18 -30 40 -14 28 -27 40 -42 40 -19 0 -20 -4 -14 -52 3 -29 6 -65 6 -80 0 -21
4 -26 16 -21 13 5 15 16 12 55 -4 41 -3 46 9 36 8 -6 21 -24 29 -40 8 -15 18
-28 23 -28 4 0 13 24 18 53 7 40 11 48 17 32 4 -11 12 -32 18 -47 9 -24 38
-40 38 -21 0 6 -51 137 -54 139 0 0 -9 -1 -18 -4z"/>
<path d="M2063 3447 l-32 -12 31 -72 30 -73 35 15 c20 8 37 15 39 15 2 0 4 7
4 16 0 11 -5 14 -17 9 -31 -13 -47 -10 -51 7 -2 10 5 19 17 23 33 10 25 27 -9
20 -25 -6 -30 -4 -30 13 0 11 9 22 20 25 22 6 28 27 8 26 -7 0 -27 -6 -45 -12z"/>
<path d="M2844 3452 c-35 -23 -44 -88 -16 -120 22 -27 72 -40 72 -19 0 8 -9
17 -19 20 -10 2 -24 13 -29 24 -23 42 36 94 72 64 18 -15 30 11 13 28 -12 12
-76 15 -93 3z"/>
<path d="M2971 3349 c-28 -44 -37 -67 -30 -74 7 -7 17 -2 30 14 17 21 22 22
49 11 35 -14 36 -18 14 -48 -14 -20 -12 -42 4 -42 4 0 25 27 46 61 29 45 36
63 27 72 -8 8 -15 6 -27 -11 -18 -26 -33 -28 -59 -8 -18 13 -18 17 -5 40 10
20 11 29 2 38 -8 8 -21 -6 -51 -53z"/>
<path d="M1937 3375 l-37 -26 36 -57 c20 -31 38 -59 40 -61 7 -8 74 34 74 46
0 16 -5 16 -32 2 -15 -8 -23 -8 -32 1 -8 8 -5 16 13 29 28 21 13 38 -19 21
-28 -15 -41 17 -16 36 36 26 10 34 -27 9z"/>
<path d="M2415 3279 c-93 -8 -178 -35 -290 -92 -107 -55 -254 -199 -307 -302
-76 -147 -99 -237 -99 -390 1 -448 397 -810 841 -769 202 18 358 92 496 236
136 140 200 283 219 483 34 367 -226 726 -591 814 -96 24 -164 29 -269 20z
m312 -42 c167 -59 302 -158 396 -290 56 -79 80 -125 105 -209 88 -286 16 -577
-193 -783 -265 -261 -680 -295 -980 -80 -134 95 -238 240 -296 410 -21 62 -24
88 -24 220 0 131 3 158 23 215 87 245 241 411 466 500 106 42 153 50 296 46
114 -3 146 -7 207 -29z"/>
<path d="M2418 3199 c-137 -15 -237 -56 -355 -146 -188 -142 -290 -387 -262
-629 19 -174 77 -291 205 -420 66 -68 97 -90 175 -128 132 -64 206 -79 349
-73 126 6 178 19 285 72 132 65 245 178 310 310 53 107 66 159 72 285 6 142
-9 217 -71 345 -129 265 -411 418 -708 384z m207 -359 c6 -2 21 1 35 4 15 4
32 2 44 -7 19 -14 18 -17 -21 -111 -40 -93 -41 -96 -20 -96 41 0 66 -11 60
-27 -5 -12 3 -14 38 -11 38 3 44 1 41 -16 -3 -16 2 -18 43 -14 44 3 46 2 40
-21 -6 -23 -5 -24 43 -18 44 5 49 4 45 -11 -4 -15 2 -17 36 -14 34 3 41 1 41
-13 0 -18 26 -17 100 1 23 6 21 3 -15 -35 -63 -67 -188 -157 -250 -180 -77
-29 -144 -27 -217 6 -56 25 -61 25 -70 9 -12 -22 -99 -120 -110 -124 -4 -2 -8
2 -8 10 0 7 -18 30 -40 51 -21 22 -42 47 -45 58 -8 25 -19 24 -56 -3 -48 -36
-151 -38 -225 -4 -86 40 -299 204 -284 219 3 3 29 0 58 -5 58 -12 72 -7 51 18
-13 16 -12 17 11 12 90 -21 92 -21 86 0 -6 19 -4 19 31 12 45 -11 56 -5 42 22
-11 20 -9 20 36 13 46 -6 48 -6 42 15 -6 22 -4 22 49 16 53 -6 65 -1 43 21 -8
8 0 13 30 18 23 4 41 10 41 13 0 4 -16 44 -36 89 -20 45 -34 88 -31 97 5 12
31 14 169 11 90 -2 168 -4 173 -5z"/>
<path d="M1780 3252 l-34 -29 21 -29 c12 -16 34 -41 50 -56 27 -25 29 -26 49
-10 41 34 56 67 44 97 -23 61 -76 71 -130 27z m96 -27 c15 -23 15 -27 -1 -51
l-17 -27 -36 36 c-30 30 -33 38 -23 51 20 24 58 20 77 -9z"/>
<path d="M3126 3228 c-31 -34 -43 -55 -36 -62 6 -6 16 -4 28 7 26 24 32 21 26
-13 -4 -16 -3 -37 1 -47 6 -15 9 -12 19 17 10 26 18 35 36 35 12 0 29 10 37
22 13 19 11 24 -17 57 -18 20 -36 36 -40 36 -4 0 -28 -23 -54 -52z m82 -11 c4
-19 -20 -32 -43 -23 -13 5 -13 9 -3 26 15 24 41 22 46 -3z"/>
<path d="M1673 3135 l-22 -34 52 -45 c28 -26 54 -46 57 -46 4 0 19 13 34 29
33 35 26 64 -8 32 -28 -27 -54 -14 -36 19 15 28 5 38 -18 17 -11 -10 -23 -13
-31 -8 -11 7 -10 13 3 33 14 22 13 38 -3 38 -3 0 -16 -16 -28 -35z"/>
<path d="M3238 3113 c-45 -36 -55 -49 -47 -59 13 -16 18 -12 88 48 24 20 40
41 36 47 -10 17 -15 14 -77 -36z"/>
<path d="M3317 3056 c-11 -11 -14 -27 -10 -56 5 -36 3 -40 -15 -40 -15 0 -24
8 -28 25 -3 14 -13 25 -21 25 -10 0 -12 -6 -7 -22 10 -34 34 -58 59 -58 32 0
47 22 43 66 -3 41 19 61 29 25 4 -17 33 -32 33 -16 0 12 -24 55 -31 55 -4 0
-14 3 -22 6 -8 3 -21 -2 -30 -10z"/>
<path d="M1598 3013 c-18 -21 -41 -63 -36 -68 2 -1 32 -17 67 -35 50 -25 66
-29 72 -18 6 9 0 18 -19 28 l-27 15 35 3 c31 3 49 15 50 33 0 3 -13 4 -29 1
-24 -3 -31 1 -43 25 -16 33 -48 41 -70 16z m50 -37 c6 -27 -11 -38 -33 -22
-11 8 -16 19 -12 30 9 22 41 17 45 -8z"/>
<path d="M3419 2953 c-1 -4 -2 -14 -3 -21 0 -7 -23 -25 -51 -40 -27 -15 -52
-28 -54 -30 -3 -1 0 -7 5 -12 7 -7 26 -3 59 11 40 18 52 19 68 10 28 -18 32
-6 12 39 -18 40 -34 59 -36 43z"/>
<path d="M1494 2770 l-11 -39 60 -21 c34 -11 66 -20 72 -20 10 0 35 61 35 84
0 18 -19 2 -28 -24 -8 -22 -15 -28 -27 -23 -13 4 -15 13 -11 34 4 22 2 29 -9
29 -8 0 -15 -6 -15 -12 0 -7 -4 -19 -9 -27 -15 -23 -44 5 -31 29 13 25 13 30
-3 30 -7 0 -18 -18 -23 -40z"/>
<path d="M3415 2791 c-39 -11 -61 -24 -63 -34 -4 -21 -2 -21 78 1 43 13 66 24
68 35 4 21 -6 20 -83 -2z"/>
<path d="M3370 2681 c0 -14 6 -21 20 -21 16 0 20 -7 20 -35 0 -19 -6 -37 -15
-42 -9 -5 -11 -13 -6 -22 7 -10 22 -6 75 24 52 29 66 42 66 60 0 21 -7 24 -72
35 -40 7 -76 14 -80 17 -5 2 -8 -5 -8 -16z m140 -39 c0 -11 -68 -43 -73 -34
-20 37 -16 42 28 42 25 0 45 -4 45 -8z"/>
<path d="M1470 2636 c0 -9 12 -16 28 -18 22 -2 28 -8 30 -35 3 -32 2 -33 -32
-33 -29 0 -36 -4 -36 -20 0 -17 7 -20 53 -20 28 0 62 -3 75 -6 18 -5 22 -2 22
15 0 17 -6 21 -30 21 -28 0 -30 3 -30 35 0 33 2 35 35 35 45 0 47 25 4 34 -58
11 -119 7 -119 -8z"/>
<path d="M3390 2490 c0 -5 23 -12 50 -16 28 -4 50 -10 50 -15 0 -5 -4 -9 -10
-9 -5 0 -30 -12 -55 -27 -49 -30 -61 -63 -22 -63 12 0 46 -3 75 -6 44 -6 52
-4 52 10 0 9 -7 17 -15 17 -8 1 -19 3 -25 4 -5 1 -22 3 -37 4 l-28 2 31 17
c49 27 84 59 84 76 0 13 -13 16 -75 16 -42 0 -75 -4 -75 -10z"/>
<path d="M1465 2448 c-3 -7 -3 -26 -1 -43 2 -16 4 -36 5 -42 2 -21 21 -14 21
7 0 18 7 20 60 20 55 0 60 2 60 21 0 21 -3 21 -60 16 -55 -6 -60 -5 -60 13 0
22 -18 27 -25 8z"/>
<path d="M1586 2221 c-7 -11 3 -41 14 -41 11 0 21 30 14 41 -3 5 -9 9 -14 9
-5 0 -11 -4 -14 -9z"/>
<path d="M3384 2189 c5 -27 4 -30 -12 -24 -41 17 -52 17 -52 1 0 -11 9 -16 30
-16 34 0 39 -14 10 -30 -24 -13 -26 -26 -5 -34 11 -4 19 3 25 19 10 27 30 34
30 11 0 -21 26 -40 36 -25 4 8 -1 18 -14 27 -30 20 -27 32 7 32 17 0 33 5 36
10 9 15 -24 25 -38 11 -22 -22 -37 -13 -30 19 4 24 2 30 -12 30 -14 0 -16 -6
-11 -31z"/>
<path d="M1524 2179 c-12 -20 14 -31 76 -31 65 0 93 13 73 33 -9 9 -18 8 -36
-4 -27 -17 -41 -17 -74 1 -27 15 -30 15 -39 1z"/>
<path d="M1562 2128 c-14 -14 -16 -38 -4 -38 12 0 32 23 32 37 0 16 -12 17
-28 1z"/>
<path d="M1610 2133 c0 -5 6 -18 14 -29 17 -22 35 -11 20 13 -12 19 -34 29
-34 16z"/>
<path d="M1686 1969 c-20 -16 -26 -29 -26 -58 0 -45 32 -83 53 -62 9 10 8 14
-5 22 -20 11 -23 41 -8 70 16 29 67 26 82 -6 11 -25 28 -25 28 1 0 24 -38 54
-69 54 -15 0 -40 -9 -55 -21z"/>
<path d="M3205 1959 c-20 -18 -35 -38 -33 -44 2 -7 25 -31 53 -54 47 -39 50
-40 68 -23 51 46 54 102 5 136 -33 23 -53 20 -93 -15z m86 -20 c23 -23 22 -47
-2 -62 -13 -8 -24 -5 -47 14 -35 28 -39 44 -14 58 26 15 40 13 63 -10z"/>
<path d="M1780 1855 c-42 -43 -51 -58 -42 -67 9 -9 17 -6 37 12 14 13 26 22
28 19 1 -2 11 -14 21 -27 19 -22 19 -23 -3 -46 -18 -19 -19 -25 -8 -34 10 -9
24 2 65 48 31 35 48 61 41 65 -5 4 -18 0 -28 -9 -23 -21 -34 -20 -56 4 -17 19
-17 21 -2 38 10 10 17 24 17 30 0 27 -20 17 -70 -33z"/>
<path d="M3092 1837 c-29 -31 -29 -87 -2 -112 31 -28 89 -23 117 10 30 34 29
70 -2 100 -32 33 -83 34 -113 2z m82 -18 c14 -11 26 -28 26 -36 0 -21 -29 -53
-48 -53 -44 0 -71 78 -34 99 24 14 26 14 56 -10z"/>
<path d="M1920 1753 c-41 -65 -38 -101 12 -128 42 -23 51 -18 100 53 23 34 28
46 18 55 -9 9 -15 8 -24 -7 -29 -49 -60 -77 -80 -74 -32 5 -31 33 3 82 26 37
28 46 16 56 -11 9 -20 3 -45 -37z"/>
<path d="M2935 1725 c-16 -15 -25 -36 -25 -55 0 -36 38 -80 70 -80 64 0 110
62 81 108 -7 12 -14 11 -40 -2 -36 -19 -34 -36 4 -28 41 7 28 -30 -17 -47 -21
-8 -29 -6 -47 13 -36 38 -22 86 25 86 12 0 24 7 28 15 10 26 -51 19 -79 -10z"/>
<path d="M2057 1648 c-15 -35 -27 -66 -27 -70 0 -17 29 -7 35 12 9 30 25 24
25 -9 0 -16 7 -34 15 -41 13 -11 15 -8 15 21 0 26 6 37 23 44 13 6 23 21 25
37 3 22 -3 32 -30 48 -18 11 -38 20 -43 20 -6 0 -23 -28 -38 -62z m83 -5 c0
-18 -28 -29 -42 -15 -7 7 -6 17 2 32 9 17 14 19 26 9 8 -6 14 -18 14 -26z"/>
<path d="M2770 1657 c-19 -6 -36 -11 -38 -13 -9 -6 45 -144 56 -144 9 0 11 10
6 35 -5 31 -3 36 21 45 14 5 23 14 20 20 -4 7 -13 7 -26 0 -22 -12 -39 -6 -39
16 0 8 13 17 29 20 20 4 28 11 24 20 -6 16 -5 16 -53 1z"/>
<path d="M2223 1638 c-69 -33 -44 -157 29 -146 33 5 33 26 1 30 -24 3 -28 8
-31 40 -3 32 1 40 21 49 18 8 30 8 46 0 18 -10 21 -9 21 7 0 29 -46 40 -87 20z"/>
<path d="M2335 1573 c-4 -32 -9 -65 -11 -74 -5 -17 19 -33 30 -22 3 4 6 19 6
35 0 29 8 32 48 22 17 -5 22 -14 22 -40 0 -52 27 -45 35 9 12 88 11 112 -5
112 -9 0 -17 -12 -20 -30 -3 -16 -11 -30 -18 -29 -6 1 -21 2 -33 3 -18 1 -21
6 -17 36 3 28 1 35 -13 35 -14 0 -19 -12 -24 -57z"/>
<path d="M2596 1609 c-20 -16 -26 -29 -26 -58 0 -50 18 -71 67 -78 35 -5 45
-2 67 20 34 34 34 76 0 111 -32 32 -72 34 -108 5z m82 -21 c7 -7 12 -27 12
-45 0 -27 -5 -34 -27 -39 -14 -4 -33 -2 -42 3 -20 13 -26 60 -10 79 14 17 51
18 67 2z"/>
<path d="M2010 3610 c-8 -5 -10 -10 -5 -10 6 0 17 5 25 10 8 5 11 10 5 10 -5
0 -17 -5 -25 -10z"/>
<path d="M2961 3616 c11 -10 173 -87 164 -77 -11 11 -150 81 -162 81 -3 0 -4
-2 -2 -4z"/>
<path d="M3210 3477 c0 -3 18 -20 40 -37 22 -17 40 -29 40 -27 0 3 -18 20 -40
37 -22 17 -40 29 -40 27z"/>
<path d="M3360 3341 c0 -5 7 -12 16 -15 14 -5 15 -4 4 9 -14 17 -20 19 -20 6z"/>
<path d="M3475 3205 c40 -56 51 -66 29 -27 -10 18 -28 41 -38 50 -12 10 -8 0
9 -23z"/>
<path d="M1420 3059 c-12 -23 -20 -43 -18 -45 3 -2 14 17 26 41 27 56 20 60
-8 4z"/>
<path d="M3591 3015 c0 -5 9 -28 20 -50 10 -22 16 -29 13 -15 -7 28 -33 80
-33 65z"/>
<path d="M1386 2985 c-9 -26 -7 -32 5 -12 6 10 9 21 6 23 -2 3 -7 -2 -11 -11z"/>
<path d="M1343 2885 c-3 -9 -3 -18 -1 -21 3 -3 8 4 11 16 6 23 -1 27 -10 5z"/>
<path d="M1305 2738 c-14 -62 -18 -124 -18 -243 0 -214 25 -326 118 -523 111
-235 331 -453 571 -567 80 -38 276 -99 296 -92 7 2 -9 9 -37 15 -265 58 -502
206 -675 423 -121 151 -210 341 -245 524 -24 121 -24 331 -1 449 22 112 15
123 -9 14z"/>
<path d="M3671 2770 c0 -8 4 -24 9 -35 5 -13 9 -14 9 -5 0 8 -4 24 -9 35 -5
13 -9 14 -9 5z"/>
<path d="M3702 2620 c0 -19 2 -27 5 -17 2 9 2 25 0 35 -3 9 -5 1 -5 -18z"/>
<path d="M3703 2475 c0 -27 2 -38 4 -22 2 15 2 37 0 50 -2 12 -4 0 -4 -28z"/>
<path d="M3695 2365 c-3 -31 -4 -59 -2 -62 3 -2 9 21 12 52 4 31 5 58 2 61 -2
3 -8 -20 -12 -51z"/>
<path d="M3676 2259 c-8 -42 0 -50 9 -9 4 17 5 34 2 36 -2 3 -7 -10 -11 -27z"/>
<path d="M3636 2112 c-54 -169 -149 -319 -300 -467 -133 -131 -264 -215 -432
-276 -60 -22 -93 -37 -74 -33 49 9 173 59 250 101 102 56 182 117 267 201 96
95 146 161 212 276 46 81 109 241 99 252 -3 2 -13 -22 -22 -54z"/>
<path d="M2730 1320 c-20 -6 -21 -8 -5 -8 11 0 31 4 45 8 20 6 21 8 5 8 -11 0
-31 -4 -45 -8z"/>
<path d="M2325 1299 c40 -8 202 -12 194 -5 -2 2 -56 5 -119 8 -70 3 -99 2 -75
-3z"/>
<path d="M2595 1300 l-50 -7 55 0 c30 -1 66 3 80 7 24 8 24 8 -5 7 -16 0 -52
-3 -80 -7z"/>
</g>
</svg>
